<?xml version="1.0" encoding="UTF-8"?>
<svg xmlns="http://www.w3.org/2000/svg" xmlns:xlink="http://www.w3.org/1999/xlink" width="3000" height="2250" viewBox="0 0 3000 2250">
<rect x="-300" y="-225" width="3600" height="2700" fill="rgb(97.65625%, 97.65625%, 97.65625%)" fill-opacity="1"/>
<path fill-rule="nonzero" fill="rgb(0%, 50.193787%, 0%)" fill-opacity="1" d="M 1048.328125 913.398438 C 1036.710938 913.5 1024.378906 919.101562 1015.171875 929.601562 L 737.941406 1245.980469 L 559.390625 1077.550781 C 548.375 1067.160156 528.621094 1070.328125 515.101562 1084.671875 C 501.582031 1099 499.5625 1118.898438 510.578125 1129.289062 L 722.46875 1329.167969 C 732.652344 1338.773438 748.320312 1338.90625 757.386719 1330.515625 C 760.148438 1327.957031 1068.679688 976.480469 1068.679688 976.480469 C 1084.171875 958.789062 1084.710938 934.101562 1069.890625 921.121094 C 1063.878906 915.839844 1056.269531 913.328125 1048.328125 913.398438 Z M 1048.328125 913.398438 "/>
<path fill-rule="nonzero" fill="rgb(100%, 0%, 0%)" fill-opacity="1" d="M 2389.46875 893.738281 C 2376.609375 893.679688 2362.839844 899.269531 2352.03125 910.160156 L 2196.628906 1066.628906 L 2040.148438 911.230469 C 2020.789062 892 1992.238281 889.578125 1976.128906 905.808594 C 1960.019531 922.03125 1962.628906 950.570312 1981.980469 969.789062 L 2138.460938 1125.199219 L 1983.050781 1281.667969 C 1963.820312 1301.027344 1961.410156 1329.582031 1977.628906 1345.695312 C 1993.851562 1361.808594 2022.390625 1359.195312 2041.621094 1339.839844 L 2197.019531 1183.371094 L 2353.488281 1338.773438 C 2372.851562 1358 2401.410156 1360.417969 2417.519531 1344.195312 C 2433.628906 1327.972656 2431.019531 1299.433594 2411.660156 1280.207031 L 2255.191406 1124.800781 L 2410.589844 968.328125 C 2429.820312 948.96875 2432.238281 920.410156 2416.019531 904.300781 C 2408.921875 897.25 2399.46875 893.789062 2389.46875 893.738281 Z M 2389.46875 893.738281 "/>
<path fill-rule="nonzero" fill="rgb(0%, 50.193787%, 0%)" fill-opacity="1" d="M 803.175781 541.179688 C 648.335938 541.179688 499.839844 602.679688 390.351562 712.171875 C 280.863281 821.660156 219.351562 970.160156 219.351562 1125 C 219.351562 1279.839844 280.863281 1428.335938 390.351562 1537.824219 C 499.839844 1647.316406 648.335938 1708.824219 803.175781 1708.824219 C 958.015625 1708.824219 1106.519531 1647.316406 1216 1537.824219 C 1325.488281 1428.335938 1387 1279.839844 1387 1125 C 1387 970.160156 1325.488281 821.660156 1216 712.171875 C 1106.519531 602.679688 958.015625 541.179688 803.175781 541.179688 Z M 803.175781 626.261719 C 935.449219 626.261719 1062.308594 678.808594 1155.839844 772.339844 C 1249.371094 865.871094 1301.910156 992.730469 1301.910156 1125 C 1301.910156 1257.273438 1249.371094 1384.128906 1155.839844 1477.660156 C 1062.308594 1571.191406 935.449219 1623.738281 803.175781 1623.738281 C 670.902344 1623.738281 544.046875 1571.191406 450.515625 1477.660156 C 356.984375 1384.128906 304.4375 1257.273438 304.441406 1125 C 304.441406 992.730469 356.984375 865.871094 450.515625 772.339844 C 544.046875 678.808594 670.902344 626.261719 803.175781 626.261719 Z M 803.175781 626.261719 "/>
<path fill-rule="nonzero" fill="rgb(100%, 0%, 0%)" fill-opacity="1" d="M 2196.820312 541.179688 C 2041.980469 541.179688 1893.480469 602.679688 1784 712.171875 C 1674.511719 821.660156 1613 970.160156 1613 1125 C 1613 1279.839844 1674.511719 1428.335938 1784 1537.824219 C 1893.480469 1647.316406 2041.980469 1708.824219 2196.820312 1708.824219 C 2351.660156 1708.824219 2500.160156 1647.316406 2609.648438 1537.824219 C 2719.140625 1428.335938 2780.648438 1279.839844 2780.648438 1125 C 2780.648438 970.160156 2719.140625 821.660156 2609.648438 712.171875 C 2500.160156 602.679688 2351.660156 541.179688 2196.820312 541.179688 Z M 2196.820312 626.261719 C 2329.101562 626.261719 2455.949219 678.808594 2549.480469 772.339844 C 2643.019531 865.871094 2695.558594 992.730469 2695.558594 1125 C 2695.558594 1257.273438 2643.019531 1384.128906 2549.480469 1477.660156 C 2455.949219 1571.191406 2329.101562 1623.738281 2196.820312 1623.738281 C 2064.550781 1623.738281 1937.691406 1571.191406 1844.160156 1477.660156 C 1750.628906 1384.128906 1698.089844 1257.273438 1698.089844 1125 C 1698.089844 992.730469 1750.628906 865.871094 1844.160156 772.339844 C 1937.691406 678.808594 2064.550781 626.261719 2196.820312 626.261719 Z M 2196.820312 626.261719 "/>
</svg>
